<svg width="128" height="29" viewBox="0 0 128 29" fill="none" xmlns="http://www.w3.org/2000/svg">
<g clip-path="url(#clip0_51_81)">
<path d="M39.9725 4.4825C39.738 3.61602 39.2807 2.82609 38.6459 2.19139C38.0112 1.55669 37.2212 1.09938 36.3547 0.865C33.1825 0 20.4165 0 20.4165 0C20.4165 0 7.64997 0.02625 4.47822 0.89125C3.61178 1.12567 2.82187 1.583 2.18717 2.2177C1.55247 2.85239 1.09514 3.6423 0.860723 4.50875C-0.0987775 10.145 -0.471027 18.7327 0.886973 24.1432C1.12139 25.0097 1.57872 25.7996 2.21342 26.4343C2.84812 27.069 3.63803 27.5263 4.50447 27.7607C7.67647 28.6257 20.4427 28.6257 20.4427 28.6257C20.4427 28.6257 33.209 28.6257 36.381 27.7607C37.2474 27.5263 38.0373 27.069 38.672 26.4343C39.3067 25.7996 39.7641 25.0097 39.9985 24.1432C41.0102 18.4992 41.3222 9.91675 39.9722 4.48275" fill="#FF0000"/>
<path d="M16.353 20.447L26.9435 14.313L16.353 8.17871V20.447Z" fill="white"/>
<path d="M122.809 8.31019C124.198 8.31019 125.247 8.57219 125.981 9.07019C126.715 9.56836 127.239 10.3549 127.554 11.4297C127.868 12.5044 127.999 13.9722 127.999 15.8597V18.9269H121.262V19.8704L121.367 22.4657C121.446 23.0424 121.577 23.4619 121.787 23.7239C121.997 23.9862 122.337 24.1172 122.783 24.1172C123.386 24.1172 123.805 23.8814 124.015 23.4097C124.251 22.9377 124.356 22.1512 124.382 21.0764L127.868 21.2862C127.895 21.4434 127.895 21.6532 127.895 21.9152C127.895 23.5667 127.449 24.7989 126.531 25.6114C125.614 26.4239 124.356 26.8434 122.704 26.8434C120.712 26.8434 119.323 26.2144 118.536 24.9824C117.75 23.7502 117.33 21.8102 117.33 19.2152V16.0432C117.419 11.5869 118.203 8.32319 122.809 8.31019ZM74.339 8.65094V21.7842C74.339 22.5707 74.4175 23.1474 74.601 23.4882C74.9733 24.2169 75.938 24.0307 76.4623 23.6717C76.7648 23.467 77.0088 23.187 77.17 22.8592V8.65069H81.1808V26.5549H78.035L77.6943 24.3529H77.6158C76.7508 26.0044 75.466 26.8432 73.7623 26.8432C71.1398 26.8367 70.498 24.9472 70.3453 23.0282L70.3353 22.8929C70.3164 22.6023 70.3053 22.3112 70.302 22.0199V8.65094H74.339ZM95.022 8.65094V21.7842C95.022 22.5707 95.1005 23.1474 95.284 23.4882C95.6565 24.2169 96.621 24.0307 97.1453 23.6717C97.4478 23.467 97.6918 23.187 97.853 22.8592V8.65069H101.864V26.5549H98.718L98.3773 24.3529H98.2988C97.4338 26.0044 96.149 26.8432 94.4453 26.8432C91.8228 26.8367 91.181 24.9472 91.0283 23.0282L91.0183 22.8929C90.9994 22.6023 90.9883 22.3112 90.985 22.0199V8.65094H95.022ZM62.6998 8.31019C64.0105 8.31019 65.0853 8.57219 65.8718 9.12269C66.658 9.67319 67.261 10.5122 67.628 11.6654C67.995 12.8189 68.1785 14.3654 68.1785 16.2792V18.8742C68.1785 20.7879 67.995 22.3084 67.628 23.4617C67.261 24.6154 66.6843 25.4542 65.8718 26.0047C65.0593 26.5289 63.958 26.8172 62.595 26.8172C61.1793 26.8434 60.0783 26.5552 59.2658 26.0309C58.4533 25.4804 57.8763 24.6414 57.5358 23.4882C57.1948 22.3347 57.0375 20.8142 57.0375 18.9007V16.3052C57.0375 14.3914 57.221 12.8187 57.6143 11.6652C58.0075 10.4857 58.6103 9.64669 59.4493 9.12269C60.288 8.59819 61.3628 8.30994 62.6998 8.30994M108.155 1.12744V10.5644H108.182C108.549 9.88294 109.02 9.33244 109.676 8.91294C110.288 8.50158 111.009 8.28254 111.747 8.28394C112.717 8.28394 113.451 8.54594 114.001 9.04394C114.552 9.56844 114.945 10.3809 115.181 11.5082C115.409 12.6002 115.539 14.1104 115.547 16.0149L115.548 16.2007V19.0317C115.548 21.6792 115.207 23.6454 114.578 24.9037C113.923 26.1619 112.926 26.7912 111.563 26.7912C110.803 26.7912 110.121 26.6077 109.492 26.2669C108.936 25.9425 108.475 25.4777 108.155 24.9189L108.103 24.8249H108.024L107.605 26.5289H104.276V1.12769L108.155 1.12744ZM92.112 2.04494V5.29519H88.1275V26.5549H84.1955V5.29544H80.1848V2.04519L92.112 2.04494ZM48.8848 2.04494L48.8873 2.05494C48.9255 2.22519 49.4555 4.58144 50.0385 7.32669L50.0845 7.54419L50.154 7.87294L50.2005 8.09369L50.2238 8.20444L50.2703 8.42644L50.2935 8.53769L50.3398 8.76044L50.4073 9.08619C50.801 10.9872 51.1768 12.8937 51.4015 14.2607H51.5065C51.7218 13.0344 52.0345 11.4652 52.368 9.86294L52.4555 9.44444C52.4994 9.23478 52.5435 9.02544 52.588 8.81644L52.6565 8.49219C53.1094 6.3689 53.5758 4.24852 54.0558 2.13119L54.0633 2.09744L54.0753 2.04494H58.086L53.446 18.5862V26.5289H49.4878V18.6122H49.4615L44.874 2.04469L48.8848 2.04494ZM62.621 11.0887C62.0705 11.0887 61.7035 11.3772 61.4678 11.9802C61.232 12.5832 61.127 13.5004 61.127 14.7852V20.3687C61.127 21.6794 61.2318 22.6492 61.4415 23.2262C61.6514 23.8029 62.0445 24.0912 62.621 24.0912C63.1715 24.0912 63.5648 23.8029 63.8008 23.2262C64.0368 22.6492 64.1415 21.6794 64.1415 20.3687V14.7849C64.1415 13.5004 64.0365 12.5567 63.8008 11.9799C63.5648 11.3772 63.1715 11.0887 62.621 11.0887ZM108.863 11.6132C108.544 11.9082 108.316 12.2719 108.181 12.7267L108.155 12.8189V22.9899C108.48 23.5404 108.942 23.9074 109.754 23.9337C110.174 23.9337 110.514 23.7764 110.777 23.4619C111.039 23.1474 111.222 22.6231 111.327 21.8889C111.428 21.1844 111.48 20.2141 111.484 18.9779V16.4889C111.484 15.0734 111.432 13.9987 111.353 13.2384C111.248 12.4782 111.118 11.9277 110.882 11.6132C110.425 10.9577 109.44 10.9657 108.863 11.6132ZM122.731 11.0102C122.285 11.0364 121.97 11.1674 121.787 11.4034C121.577 11.6654 121.446 12.0587 121.367 12.6354C121.29 13.2004 121.264 15.1754 121.262 15.2544V16.5414H124.198V15.4064V15.4282C124.197 15.8249 124.188 15.1979 124.17 14.4282L124.168 14.3247C124.151 13.6482 124.127 12.8939 124.094 12.6354C124.015 12.0324 123.884 11.6129 123.674 11.3772C123.464 11.1412 123.15 11.0102 122.73 11.0102" fill="#282828"/>
</g>
<defs>
<clipPath id="clip0_51_81">
<rect width="128" height="29" fill="white"/>
</clipPath>
</defs>
</svg>
